<svg width="26" height="26" viewBox="0 0 26 26" fill="none" xmlns="http://www.w3.org/2000/svg">
<path fill-rule="evenodd" clip-rule="evenodd" d="M2.88889 26H23.1111C24.7066 26 26 24.7066 26 23.1111V2.88889C26 1.2934 24.7066 0 23.1111 0H2.88889C1.2934 0 0 1.2934 0 2.88889V23.1111C0 24.7066 1.2934 26 2.88889 26Z" fill="#333333"/>
<path fill-rule="evenodd" clip-rule="evenodd" d="M22.3889 22.3889H18.5306V15.8174C18.5306 14.0157 17.846 13.0088 16.4199 13.0088C14.8686 13.0088 14.0581 14.0566 14.0581 15.8174V22.3889H10.3398V9.87034H14.0581V11.5566C14.0581 11.5566 15.176 9.48788 17.8326 9.48788C20.4879 9.48788 22.3889 11.1094 22.3889 14.4629V22.3889ZM5.9039 8.23114C4.63738 8.23114 3.61108 7.19679 3.61108 5.92111C3.61108 4.64544 4.63738 3.61108 5.9039 3.61108C7.17043 3.61108 8.19611 4.64544 8.19611 5.92111C8.19611 7.19679 7.17043 8.23114 5.9039 8.23114ZM3.98395 22.3889H7.86115V9.87034H3.98395V22.3889Z" fill="white"/>
</svg>
